<?xml version="1.0" encoding="utf-8"?>
<!-- Generator: Adobe Illustrator 23.0.6, SVG Export Plug-In . SVG Version: 6.00 Build 0)  -->
<svg version="1.1" id="Layer_1" xmlns="http://www.w3.org/2000/svg" xmlns:xlink="http://www.w3.org/1999/xlink" x="0px" y="0px"
	 viewBox="0 0 70 70" style="enable-background:new 0 0 70 70;" xml:space="preserve">
<style type="text/css">
	.st0{fill:#1F3465;}
</style>
<path class="st0" d="M57.63,56.76c-3.63-7.14-9.3-11.64-16.59-13.29c5.55-3.11,7.69-10.24,7.69-17.03c0-7.87-6.4-14.27-14.27-14.27
	c-7.87,0-14.27,6.4-14.27,14.27c0,8.44,2.8,14.4,7.72,17.06c-7.07,1.67-12.67,6.16-16.37,13.25c-0.38,0.73-0.1,1.64,0.64,2.02
	c0.74,0.38,1.64,0.1,2.02-0.64c4.29-8.22,11.11-12.38,20.26-12.38c9.43,0,16.33,4.16,20.5,12.37c0.26,0.52,0.79,0.82,1.34,0.82
	c0.23,0,0.46-0.05,0.68-0.16C57.71,58.4,58.01,57.5,57.63,56.76z M23.18,26.43c0-6.22,5.06-11.27,11.27-11.27
	c6.22,0,11.27,5.06,11.27,11.27c0,3.67-0.81,15.64-11.27,15.64C24.28,42.07,23.18,31.14,23.18,26.43z"/>
</svg>
