<?xml version="1.0" encoding="utf-8"?>
<!-- Generator: Adobe Illustrator 23.0.6, SVG Export Plug-In . SVG Version: 6.00 Build 0)  -->
<svg version="1.1" id="Layer_1" xmlns="http://www.w3.org/2000/svg" xmlns:xlink="http://www.w3.org/1999/xlink" x="0px" y="0px"
	 viewBox="0 0 70 70" style="enable-background:new 0 0 70 70;" xml:space="preserve">
<style type="text/css">
	.st0{fill:#1F3465;}
</style>
<g>
	<path class="st0" d="M63.06,23.12c-1.54-2-4.01-3.15-6.68-3.16L19.66,19.5l-0.18-0.66c-0.87-3.12-3.37-5.61-6.71-6.66L6.6,10.24
		c-0.79-0.25-1.63,0.19-1.88,0.98c-0.25,0.79,0.19,1.63,0.98,1.88l6.17,1.94c2.36,0.74,4.13,2.46,4.72,4.6l0.48,1.72
		c0,0.02,0.01,0.03,0.01,0.05l5.38,19.43c1.09,3.92,4.94,6.66,9.36,6.66h19.86c4.44,0,8.3-2.75,9.37-6.68l3.25-11.59
		C64.88,27.12,64.43,24.89,63.06,23.12z M61.41,28.43l-3.25,11.59c-0.72,2.64-3.38,4.48-6.48,4.48H31.82
		c-3.08,0-5.74-1.83-6.47-4.46l-4.86-17.53l35.88,0.44c0.01,0,0.02,0,0.04,0c1.72,0,3.31,0.74,4.27,1.99
		C61.48,25.98,61.74,27.23,61.41,28.43z"/>
	<path class="st0" d="M27.41,48.53c-2.97,0-5.39,2.56-5.39,5.71s2.42,5.71,5.39,5.71s5.39-2.56,5.39-5.71S30.38,48.53,27.41,48.53z
		 M27.41,56.96c-1.32,0-2.39-1.22-2.39-2.71s1.07-2.71,2.39-2.71s2.39,1.22,2.39,2.71S28.72,56.96,27.41,56.96z"/>
	<path class="st0" d="M54.28,48.53c-2.97,0-5.39,2.56-5.39,5.71s2.42,5.71,5.39,5.71c2.97,0,5.39-2.56,5.39-5.71
		S57.25,48.53,54.28,48.53z M54.28,56.96c-1.32,0-2.39-1.22-2.39-2.71s1.07-2.71,2.39-2.71c1.32,0,2.39,1.22,2.39,2.71
		S55.6,56.96,54.28,56.96z"/>
	<path class="st0" d="M51.54,28.28H31.3c-0.83,0-1.5,0.67-1.5,1.5s0.67,1.5,1.5,1.5h20.24c0.83,0,1.5-0.67,1.5-1.5
		S52.37,28.28,51.54,28.28z"/>
	<path class="st0" d="M51.54,35.05H31.3c-0.83,0-1.5,0.67-1.5,1.5c0,0.83,0.67,1.5,1.5,1.5h20.24c0.83,0,1.5-0.67,1.5-1.5
		C53.04,35.72,52.37,35.05,51.54,35.05z"/>
</g>
</svg>
