<?xml version="1.0" encoding="utf-8"?>
<!-- Generator: Adobe Illustrator 23.0.6, SVG Export Plug-In . SVG Version: 6.00 Build 0)  -->
<svg version="1.1" id="Layer_1" xmlns="http://www.w3.org/2000/svg" xmlns:xlink="http://www.w3.org/1999/xlink" x="0px" y="0px"
	 viewBox="0 0 70 70" style="enable-background:new 0 0 70 70;" xml:space="preserve">
<style type="text/css">
	.st0{fill:#FFFFFF;}
</style>
<g>
	<path class="st0" d="M62.97,23.69c-1.53-2-4.07-3.2-6.68-3.16l-36.72-0.46l-0.18-0.66c-0.87-3.12-3.37-5.61-6.71-6.66L6.5,10.81
		c-0.79-0.25-1.63,0.19-1.88,0.98c-0.25,0.79,0.19,1.63,0.98,1.88l6.17,1.94c2.36,0.74,4.13,2.46,4.72,4.6l0.47,1.7
		c0.01,0.03,0.02,0.06,0.02,0.09l5.38,19.41c1.09,3.92,4.94,6.66,9.36,6.66h19.86c4.44,0,8.3-2.75,9.37-6.68l3.25-11.59
		C64.79,27.69,64.33,25.46,62.97,23.69z M61.32,29l-3.25,11.59c-0.72,2.64-3.38,4.48-6.48,4.48H31.73c-3.08,0-5.74-1.83-6.47-4.46
		L20.4,23.08l35.88,0.44c0.01,0,0.02,0,0.04,0c1.72,0,3.31,0.74,4.27,1.99C61.39,26.55,61.65,27.8,61.32,29z"/>
	<path class="st0" d="M27.31,49.1c-2.97,0-5.39,2.56-5.39,5.71c0,3.15,2.42,5.71,5.39,5.71s5.39-2.56,5.39-5.71
		C32.7,51.67,30.28,49.1,27.31,49.1z M27.31,57.53c-1.32,0-2.39-1.22-2.39-2.71c0-1.5,1.07-2.71,2.39-2.71s2.39,1.22,2.39,2.71
		C29.7,56.31,28.63,57.53,27.31,57.53z"/>
	<path class="st0" d="M54.19,49.1c-2.97,0-5.39,2.56-5.39,5.71c0,3.15,2.42,5.71,5.39,5.71c2.97,0,5.39-2.56,5.39-5.71
		C59.58,51.67,57.16,49.1,54.19,49.1z M54.19,57.53c-1.32,0-2.39-1.22-2.39-2.71c0-1.5,1.07-2.71,2.39-2.71s2.39,1.22,2.39,2.71
		C56.58,56.31,55.5,57.53,54.19,57.53z"/>
	<path class="st0" d="M51.44,28.85H31.2c-0.83,0-1.5,0.67-1.5,1.5s0.67,1.5,1.5,1.5h20.24c0.83,0,1.5-0.67,1.5-1.5
		S52.27,28.85,51.44,28.85z"/>
	<path class="st0" d="M51.44,35.62H31.2c-0.83,0-1.5,0.67-1.5,1.5s0.67,1.5,1.5,1.5h20.24c0.83,0,1.5-0.67,1.5-1.5
		S52.27,35.62,51.44,35.62z"/>
</g>
</svg>
