<?xml version="1.0" encoding="utf-8"?>
<!-- Generator: Adobe Illustrator 23.0.6, SVG Export Plug-In . SVG Version: 6.00 Build 0)  -->
<svg version="1.1" id="Layer_1" xmlns="http://www.w3.org/2000/svg" xmlns:xlink="http://www.w3.org/1999/xlink" x="0px" y="0px"
	 viewBox="0 0 70 70" style="enable-background:new 0 0 70 70;" xml:space="preserve">
<style type="text/css">
	.st0{fill:#FFFFFF;}
</style>
<g>
	<path class="st0" d="M21.81,11.99c-5.67,0-10.27,4.61-10.27,10.27c0,5.67,4.61,10.27,10.27,10.27s10.27-4.61,10.27-10.27
		C32.08,16.59,27.47,11.99,21.81,11.99z M21.81,29.53c-4.01,0-7.27-3.26-7.27-7.27c0-4.01,3.26-7.27,7.27-7.27s7.27,3.26,7.27,7.27
		C29.08,26.27,25.82,29.53,21.81,29.53z"/>
	<path class="st0" d="M21.81,38.56c-5.67,0-10.27,4.61-10.27,10.27c0,5.67,4.61,10.27,10.27,10.27s10.27-4.61,10.27-10.27
		C32.08,43.17,27.47,38.56,21.81,38.56z M21.81,56.11c-4.01,0-7.27-3.26-7.27-7.27c0-4.01,3.26-7.27,7.27-7.27s7.27,3.26,7.27,7.27
		C29.08,52.85,25.82,56.11,21.81,56.11z"/>
	<path class="st0" d="M47.36,32.53c5.67,0,10.27-4.61,10.27-10.27c0-5.67-4.61-10.27-10.27-10.27s-10.27,4.61-10.27,10.27
		C37.08,27.92,41.69,32.53,47.36,32.53z M47.36,14.99c4.01,0,7.27,3.26,7.27,7.27c0,4.01-3.26,7.27-7.27,7.27s-7.27-3.26-7.27-7.27
		C40.08,18.25,43.35,14.99,47.36,14.99z"/>
	<path class="st0" d="M47.36,38.56c-5.67,0-10.27,4.61-10.27,10.27c0,5.67,4.61,10.27,10.27,10.27s10.27-4.61,10.27-10.27
		C57.63,43.17,53.02,38.56,47.36,38.56z M47.36,56.11c-4.01,0-7.27-3.26-7.27-7.27c0-4.01,3.26-7.27,7.27-7.27s7.27,3.26,7.27,7.27
		C54.63,52.85,51.37,56.11,47.36,56.11z"/>
</g>
</svg>
