<?xml version="1.0" encoding="utf-8"?>
<!-- Generator: Adobe Illustrator 23.0.6, SVG Export Plug-In . SVG Version: 6.00 Build 0)  -->
<svg version="1.1" id="Layer_1" xmlns="http://www.w3.org/2000/svg" xmlns:xlink="http://www.w3.org/1999/xlink" x="0px" y="0px"
	 viewBox="0 0 70 70" style="enable-background:new 0 0 70 70;" xml:space="preserve">
<style type="text/css">
	.st0{fill:#FFFFFF;}
</style>
<g>
	<path class="st0" d="M54.82,39.02c-0.83,0-1.5,0.67-1.5,1.5v9.46c0,4.83-3.93,8.75-8.75,8.75H24.5c-4.83,0-8.75-3.93-8.75-8.75
		v-9.46c0-0.83-0.67-1.5-1.5-1.5s-1.5,0.67-1.5,1.5v9.46c0,6.48,5.27,11.75,11.75,11.75h20.07c6.48,0,11.75-5.27,11.75-11.75v-9.46
		C56.32,39.69,55.65,39.02,54.82,39.02z"/>
	<path class="st0" d="M63.96,34.09l-28.1-24.06c-0.03-0.04-0.06-0.09-0.09-0.13c-0.31-0.36-0.75-0.53-1.19-0.52
		C34.14,9.37,33.7,9.54,33.4,9.9c-0.04,0.04-0.06,0.09-0.09,0.13L5.2,34.09c-0.63,0.54-0.7,1.49-0.16,2.11
		c0.3,0.35,0.72,0.52,1.14,0.52c0.34,0,0.69-0.12,0.97-0.36l27.43-23.49l27.43,23.49c0.28,0.24,0.63,0.36,0.97,0.36
		c0.42,0,0.84-0.18,1.14-0.52C64.66,35.58,64.59,34.63,63.96,34.09z"/>
</g>
</svg>
