<?xml version="1.0" encoding="utf-8"?>
<!-- Generator: Adobe Illustrator 23.0.6, SVG Export Plug-In . SVG Version: 6.00 Build 0)  -->
<svg version="1.1" id="Layer_1" xmlns="http://www.w3.org/2000/svg" xmlns:xlink="http://www.w3.org/1999/xlink" x="0px" y="0px"
	 viewBox="0 0 70 70" style="enable-background:new 0 0 70 70;" xml:space="preserve">
<style type="text/css">
	.st0{fill:#FFFFFF;}
</style>
<path class="st0" d="M56.49,18.81c-2.6-3.56-6.7-5.29-11.27-4.73c-5.53,0.67-8.91,4.82-10.63,7.73c-1.72-2.91-5.1-7.06-10.63-7.73
	c-4.56-0.55-8.67,1.17-11.27,4.73c-3.26,4.48-3.57,11.01-0.79,17.03c4.94,10.71,21.2,21.06,21.89,21.5c0.24,0.15,0.52,0.23,0.8,0.23
	s0.56-0.08,0.8-0.23c0.69-0.44,16.96-10.78,21.89-21.5C60.05,29.82,59.75,23.29,56.49,18.81z M54.55,34.59
	c-3.97,8.62-16.65,17.48-19.97,19.69c-3.32-2.21-16-11.07-19.97-19.69c-2.32-5.04-2.14-10.41,0.49-14.01
	c1.71-2.35,4.22-3.6,7.16-3.6c0.43,0,0.87,0.03,1.32,0.08c6.63,0.8,9.56,8.59,9.59,8.66c0.21,0.59,0.78,0.99,1.41,0.99
	s1.2-0.4,1.41-0.99c0.03-0.08,2.92-7.85,9.59-8.66c3.51-0.43,6.52,0.83,8.48,3.52C56.68,24.18,56.87,29.55,54.55,34.59z"/>
</svg>
